<svg xmlns="http://www.w3.org/2000/svg" viewBox="0 0 64 64">
  <rect width="64" height="64" rx="14" fill="#082f3a" />
  <rect x="10" y="10" width="44" height="44" rx="10" fill="#123f4a" stroke="#67e8f9" stroke-opacity=".25" />
  <g
    transform="translate(8 8) scale(2)"
    fill="none"
    stroke="#ecfeff"
    stroke-linecap="round"
    stroke-linejoin="round"
    stroke-width="2"
  >
    <path d="M6 18h8" />
    <path d="M3 22h18" />
    <path d="M14 22a7 7 0 1 0 0-14h-1" />
    <path d="M9 14h2" />
    <path d="M9 12a2 2 0 0 1-2-2V6h6v4a2 2 0 0 1-2 2Z" />
    <path d="M12 6V3a1 1 0 0 0-1-1H9a1 1 0 0 0-1 1v3" />
  </g>
</svg>
